<?xml version="1.0" encoding="UTF-8"?>
<svg id="Camada_1" data-name="Camada 1" xmlns="http://www.w3.org/2000/svg" viewBox="0 0 300 300">
  <path d="M106.9,144.51c.02-1.29.29-5.58-.09-6.42-2.12-.09-4.24-.47-6.76-.47-1.11.42-2.22.28-3.12.8-2.09,1.22-3.27,4.96-1.5,7.46,2.46,3.39,9.67,1.01,11.47-1.37Z"/>
  <path d="M64.88,123.59c-1.88-.66-3.87-.97-5.86-.9-.68.28-1.44.22-2.07.47-1.76.73-2.85,2.31-3.54,4.11-.68,2.15-.96,4.41-.85,6.66,0,7.34,3,12.92,10.96,10.43,1.16-.36,2.26-.9,3.25-1.61v-13.17c0-1.17.3-4.41-.13-5.16l-1.76-.83Z"/>
  <path d="M250.6,18.65H49.36c-16.98,0-30.75,13.77-30.75,30.75v201.22c0,16.98,13.77,30.75,30.75,30.75h201.24c16.98,0,30.75-13.77,30.75-30.75V49.4c0-16.98-13.77-30.75-30.75-30.75ZM192.15,124.86c.72-1.62,1.65-3.14,2.79-4.51,2.03-2.55,5.17-4.23,8.82-5.14l3.4-.47,1.13-.05c9.36-.16,14.03,4.12,15.58,11.85.46,2.28.56,9.37-.86,10.43-1.06.78-3.84.43-5.56.43h-12.02c-1.2,0-4.08-.31-4.96.09.04,4.72,2.49,7.47,6.19,8.59,1.24.26,2.49.43,3.75.53,1.79.21,3.6.14,5.38-.2l4.87-.89c.58-.15,1.49-.59,2.08-.33.28.16.49.41.61.71.12,1.89.09,3.78-.09,5.67-.58,1.36-3.81,1.94-5.47,2.36-6.59,1.64-14.96,1.01-19.59-1.89h0v-.02c-3.37-2.1-5.59-5.36-6.85-9.56-1.56-5.26-1.05-13.2.8-17.59ZM126.12,116.4c.2-.26.49-.44.8-.52.85-.21,6.9-.14,7.36.14,1.17.69.66,2.34,1.5,3.35l2.31-1.42c1.52-.89,3.12-1.64,4.77-2.25,1.29-.42,2.62-.72,3.97-.89l1.98-.14c4.93-.07,8.04,1.64,9.85,4.68h.19c4.72-4.06,17.63-7.47,22.53-1.09,2.73,3.52,2.25,9.16,2.25,15.35v14.68c0,1.58.37,4.44-.56,5.14-.65.49-6.24.24-7.65.24-.94,0-1.9.11-2.31-.43-.71-.92-.33-5.5-.33-7.18v-14.15c0-2.31.23-5.18-.52-6.76-1.51-3.04-6.38-2.32-9.48-1.22-.71.25-2.19.49-2.55,1.08-.03,7.09-.05,14.17-.05,21.24,0,1.71.37,6.51-.52,7.18-.66.5-3.76.24-4.82.24s-4.14.26-4.81-.14c-1.1-.68-.66-6.09-.66-8.03v-14.27c0-2.62.17-5.29-.95-6.8-1.27-1.69-4.63-1.68-7.17-1.09-1.61.31-3.16.88-4.58,1.7v20.61c0,1.73.42,6.66-.33,7.6-.59.76-5.99.43-7.55.43-.68,0-1.79.14-2.25-.14-.82-.5-.66-1.8-.66-3.12l.02-26.91c0-1.43-.26-6.38.24-7.13ZM84.61,140.63c1.43-5.71,5.78-8.05,11.94-9.11,1.31-.24,2.64-.29,3.97-.14l3.59.38c.79.16,2.08.65,2.83.47.03-3.02.25-6.3-1.06-7.98-1.82-2.33-9.25-1.61-12.51-.9-1.13.24-5.17,1.57-6.01.99-.57-.39-.65-5.34-.23-6.28.42-.94,1.98-1.2,3-1.55,2.35-.71,4.75-1.23,7.18-1.56l4.25-.28c7.94-.08,13.07,2.01,14.87,8.08.77,2.58.52,6.26.52,9.54v16.85c0,1.31.29,3.19-.33,4.06-.62.87-7.05.64-7.89,0-.83-.64-.58-1.91-1.22-2.74l-2.5,1.84c-1.94,1.17-4.06,1.98-6.28,2.41-8.72,1.84-16.33-5.29-14.12-14.07ZM49.16,168.37c-1.34-.43-3.49-.87-4.16-1.98-.25-1.94-.32-3.9-.19-5.86.15-.41.51-.72.95-.8l5.81,1.4,3.97.52c1.35.17,2.72.14,4.06-.1,4.78-.86,6.2-2.47,7.04-7.27.28-1.68.31-3.39.08-5.07h-.05l-2.03,1.5c-1.66.99-3.48,1.67-5.38,2.01-2.83.45-5.73.09-8.36-1.04-4.78-2.07-7.38-6.39-8.69-11.94-.36-1.55-.19-3.09-.47-4.87-.21-1.89-.11-3.8.29-5.66.33-1.89.85-3.74,1.56-5.53,1.49-3.68,4.4-6.6,8.07-8.11,1-.34,2.02-.6,3.06-.75l1.79-.14c5.4-.1,8.2,2.04,11.14,4.3l.14-.1c.34-3.58,2.01-3.06,5.76-3.06,1.31,0,3.19-.17,3.68.56.49.73.19,4.24.19,5.47v25.64c0,3.58.07,7.06-.75,9.82-1.73,5.81-5.27,9.57-10.86,11.49-4.88,1.7-12.16,1.01-16.66-.43ZM226.73,190.87c-.51,2.7-3.23,3.66-5.15,4.96-5.61,3.69-11.55,6.85-17.75,9.44-4.98,2.06-10.07,3.84-15.25,5.34l-8.69,2.12c-3.77,1.14-7.96,1.01-11.94,1.89l-8.88.71-2.6.05-2.13.05c-1.98.24-3.98.22-5.95-.05h-2.03l-5.57-.42-3.3-.24-10.24-1.5c-4.86-1.19-9.76-1.95-14.27-3.45l-8.36-2.79c-3.26-1.28-6.48-2.69-9.58-4.06l-5.43-2.6c-3.63-2.11-7.31-4.03-10.76-6.28-4-2.61-7.7-5.62-11.38-8.55l-2.55-2.36c-.83-.59-1.57-1.31-2.17-2.13-.82-1.41-.45-2.19.75-2.79,1.61,0,2.43.89,3.45,1.5l5.56,3.21c5.62,3.32,12.25,6,18.6,8.46,5.72,2.21,11.81,3.7,17.94,5.62l8.58,1.92,2.31.38c2.77.75,5.91.95,8.83,1.5l9.87,1.08c.82.15,1.7.05,2.46.19l3.25.19,5.05.19,7.04-.05c3.1.1,6.21-.02,9.3-.38,1.4-.22,2.86-.07,4.11-.33l3.12-.23,9.73-1.28,8.26-1.55c7.05-1.75,14.11-3.36,20.45-5.81l7.13-2.69,4.3-1.89c1.98-.55,4.32.32,3.9,2.61ZM242.02,186.88c-1.76,6.95-4.13,12.47-7.89,17.27-.76.92-3.22,3.66-4.44,3.92-2.69.57-.26-4.16.05-4.91,1.78-4.61,3.23-9.35,4.34-14.16.38-1.49.58-4.68-.52-5.62-.76-.6-1.65-1.02-2.59-1.23-1.42-.21-2.86-.3-4.3-.28h-4.81c-2.62,0-3.98.23-6.76.42-1.4.1-5.75,1.01-6.18-.09-.55-1.37,2.46-2.85,3.21-3.3,3.17-1.73,6.6-2.93,10.15-3.54,1.57-.31,3.17-.48,4.77-.52l1.65-.1h0c4.29-.08,12.24.26,13.74,2.7.92,1.48-.02,7.83-.42,9.44ZM259.2,147.8c-2.8,5.49-10.55,8.43-19.26,6.71-2.19-.44-7.17-1.38-8.07-2.88-.3-.5-.19-1.56-.19-2.31,0-1.31-.34-3.71.52-4.2.63-.35,3,.46,3.76.66,3.6.93,15.61,3.23,14.49-3.12-.41-2.34-2.63-2.79-4.58-3.59-3.87-1.58-7.95-2.96-10.95-5.38-2.52-2.02-4.09-7.52-2.41-11.66,1.17-2.66,3.32-4.76,6.01-5.85,1.58-.63,3.22-1.07,4.9-1.31l2.7-.19c2.98-.06,5.95.37,8.79,1.26,1.1.34,2.52.59,3.06,1.5.36.59.24,1.77.24,2.7,0,1.11.27,2.86-.29,3.58-.56.72-2.58-.07-3.45-.28-3.12-.77-13.68-2.26-12.65,2.88.49,2.4,3.88,3.12,5.96,3.97,4.37,1.79,9.27,3.32,11.52,7.22h0s0-.02,0-.02c1.57,2.73,1.31,7.68-.09,10.33Z"/>
  <path d="M210.65,130.72c1.06,0,3.5.26,4.25-.09.07-5.61-1.48-8.51-7.08-8.46l-2.11.41c-2.47.78-3.88,2.56-4.72,5v-.02c-.24.7-.83,2.37-.52,3.16h10.18Z"/>
</svg>