<?xml version="1.0" encoding="UTF-8"?>
<svg id="Camada_1" data-name="Camada 1" xmlns="http://www.w3.org/2000/svg" viewBox="0 0 300 300">
  <defs>
    <style>
      .cls-1 {
        fill-rule: evenodd;
      }
    </style>
  </defs>
  <path class="cls-1" d="M150,18.84c-72.39,0-131.16,58.76-131.16,131.16s58.69,131.16,131.16,131.16,131.16-58.68,131.16-131.16S222.47,18.84,150,18.84ZM98.12,98.23h74.8l-11.37,18.21h-74.8l11.38-18.21ZM223.08,189.17l.09-.09-11.38-18.12h-33.18l11.37-18.21h10.51l-12.67-20.28-35.33,56.61H58.14l22.75-36.33h-16.72l11.38-18.21h72.9l-11.38,18.21h-34.81l-11.38,18.21h51.45l45.41-72.74,56.79,90.95h-21.46Z"/>
</svg>