<?xml version="1.0" encoding="UTF-8"?>
<svg id="Camada_1" data-name="Camada 1" xmlns="http://www.w3.org/2000/svg" viewBox="0 0 300 300">
  <defs>
    <style>
      .cls-1 {
        fill: #fff;
      }
    </style>
  </defs>
  <path class="cls-1" d="M240.85,21.6c14.89,0,20.34,5.42,20.35,20.1v179c0,2.3-.43,6.45-1.18,8.22-.6,1.7-1.57,3.24-2.84,4.51-1.45,1.34-3.92,2.73-5.11,3.27l-96.33,40.55c-3.69,1.55-7.84,1.55-11.53,0l-96.33-40.55c-1.84-.86-3.56-1.95-5.11-3.26-1.27-1.28-2.24-2.83-2.84-4.53-.74-1.77-1.16-5.92-1.16-8.22V41.68c0-14.68,5.45-20.1,20.34-20.1h181.72ZM113.82,237.65c-.29.13-.48.41-.49.73,0,.11.02.21.07.3.08.19.23.35.42.43l34.87,14.77c.78.33,1.67.33,2.45,0l35.14-14.77.27-.18.16-.24.07-.31-.07-.3-.18-.26-.26-.18-.3-.07h-71.85l-.31.07ZM86.46,175.27c-2.33,0-4.5.4-6.49,1.19-3.83,1.51-6.9,4.47-8.54,8.24-.82,1.87-1.23,3.9-1.23,6.08v.08c0,2.25.41,4.33,1.24,6.22.84,1.89,1.99,3.51,3.45,4.87,1.48,1.37,3.21,2.44,5.2,3.2,2,.77,4.18,1.15,6.54,1.15,2.76,0,5.24-.44,7.43-1.32,2.16-.88,4.05-1.98,5.68-3.28v-13.43h-13.89v6.08h5.95v3.61c-1.45.88-3.13,1.31-4.83,1.24-2.2.06-4.34-.79-5.91-2.34-.73-.75-1.31-1.64-1.7-2.61-.4-1.07-.6-2.2-.59-3.34v-.08c-.02-2.15.78-4.23,2.23-5.81,1.43-1.5,3.41-2.36,5.49-2.38,1.5,0,2.82.24,3.96.73,1.21.53,2.33,1.23,3.34,2.08l4.91-5.84c-1.62-1.36-3.39-2.42-5.31-3.19-2.22-.81-4.57-1.2-6.93-1.15M216.67,175.34c-1.66-.02-3.31.22-4.89.7-1.34.42-2.59,1.09-3.68,1.99-2.06,1.68-3.22,4.21-3.14,6.87v.09c0,1.53.3,2.82.89,3.85.59,1.04,1.39,1.9,2.41,2.6,1.03.7,2.23,1.27,3.61,1.7,1.38.45,2.87.86,4.49,1.22,1.04.23,1.88.45,2.53.68.54.16,1.06.38,1.55.65.32.17.59.42.78.72.14.23.22.5.23.81v.09c.03.63-.32,1.22-.88,1.51-.8.39-1.68.57-2.57.54-3.51,0-6.78-1.19-9.8-3.58l-4.65,5.49c1.87,1.65,4.01,2.89,6.43,3.72,2.43.82,5,1.23,7.7,1.23,1.84,0,3.51-.22,5-.66,1.4-.37,2.71-1.02,3.85-1.91,1.03-.83,1.88-1.87,2.49-3.05.6-1.29.9-2.69.88-4.11v-.07c.02-1.25-.25-2.49-.78-3.62-.52-1.03-1.29-1.92-2.24-2.57-1.09-.78-2.29-1.39-3.55-1.81-1.54-.53-3.1-.97-4.69-1.31-.87-.18-1.72-.4-2.57-.66-.54-.18-1.07-.39-1.58-.64-.33-.16-.61-.39-.82-.69-.17-.27-.25-.59-.24-.91v-.09c0-.54.26-.99.76-1.35.69-.4,1.48-.6,2.27-.55,1.35,0,2.75.25,4.19.76,1.46.5,2.88,1.23,4.26,2.19l4.19-5.84c-1.65-1.31-3.51-2.32-5.51-2.97-2.03-.68-4.33-1.01-6.91-1M102.4,205.67h8.81l2.16-5.33h11.64l2.2,5.33h8.99l-12.88-30.06h-8.06l-12.87,30.06ZM139.12,205.67h8.2v-17.06l7.68,11.6h.18l7.72-11.68v17.14h8.33v-29.86h-8.84l-7.2,11.56-7.2-11.56h-8.85v29.86ZM176.83,205.67h24.49v-7.03h-16.22v-4.73h14.5v-6.51h-14.5v-4.53h16v-7.03h-24.29v29.83ZM122.6,193.91h-6.78l3.41-8.49,3.38,8.49ZM203.32,52.96c-12.35,0-18.48,6.06-18.48,18.29v63.59c0,12.25,6.12,18.27,18.49,18.27h7.53c12.37,0,18.48-6.04,18.48-18.27v-22.92h-14.92v22.21c0,3.95-1.85,5.77-5.68,5.77h-2.85c-3.97,0-5.81-1.82-5.81-5.77v-62.17c0-3.92,1.82-5.76,5.81-5.76h2.57c3.82,0,5.68,1.82,5.68,5.77v19.25h14.92v-20.1c0-12.23-5.97-18.15-18.34-18.15h-7.39ZM70.92,152.3h34.11v-13.65h-18.91v-29.69h17.92v-13.65h-17.92v-27.84h18.62v-13.65h-33.83v98.49ZM112.39,152.3h15.21v-35.75h8.66c12.37,0,18.49-6.06,18.49-18.29v-26.17c0-12.25-6.12-18.29-18.49-18.29h-23.87v98.49ZM161.6,152.28h15.21V53.81h-15.19v98.48ZM133.85,67.04c3.82,0,5.68,1.82,5.68,5.77v24.75c0,3.93-1.84,5.77-5.68,5.77h-6.26v-36.32l6.26.03Z"/>
</svg>