<?xml version="1.0" encoding="UTF-8"?>
<svg id="Camada_1" data-name="Camada 1" xmlns="http://www.w3.org/2000/svg" xmlns:xlink="http://www.w3.org/1999/xlink" viewBox="0 0 300 300">
  <defs>
    <style>
    </style>
    <symbol id="icon-logo-gog" viewBox="0 0 32 29.18">
      <path d="M29.18,0H2.82C1.26,0,0,1.26,0,2.82v23.53c0,1.56,1.26,2.82,2.82,2.82h26.35c1.56,0,2.82-1.26,2.82-2.82V2.82c0-1.56-1.26-2.82-2.82-2.82ZM3.76,6.12c0-.78.63-1.41,1.41-1.41h5.18v1.88h-4.24c-.26,0-.47.21-.47.47v2.82c0,.26.21.47.47.47h4.24v1.88h-5.18c-.78,0-1.41-.63-1.41-1.41v-4.71ZM11.29,23.06c0,.78-.63,1.41-1.41,1.41h-4.71c-.78,0-1.41-.63-1.41-1.41v-4.71c0-.78.63-1.41,1.41-1.41h3.29v1.88h-2.35c-.26,0-.47.21-.47.47v2.82c0,.26.21.47.47.47h2.82c.26,0,.47-.21.47-.47v-5.65c0-.26-.21-.47-.47-.47H3.76v-1.88h6.12c.78,0,1.41.63,1.41,1.41h0v7.53ZM11.29,10.82v-4.71c0-.78.63-1.41,1.41-1.41h4.71c.78,0,1.41.63,1.41,1.41v4.71c0,.78-.63,1.41-1.41,1.41h-4.71c-.78,0-1.41-.63-1.41-1.41ZM19.76,23.06c0,.78-.63,1.41-1.41,1.41h-4.71c-.78,0-1.41-.63-1.41-1.41v-4.71c0-.78.63-1.41,1.41-1.41h4.71c.78,0,1.41.63,1.41,1.41v4.71ZM28.24,23.06c0,.78-.63,1.41-1.41,1.41h-4.71c-.78,0-1.41-.63-1.41-1.41v-4.71c0-.78.63-1.41,1.41-1.41h3.29v1.88h-2.35c-.26,0-.47.21-.47.47v2.82c0,.26.21.47.47.47h2.82c.26,0,.47-.21.47-.47v-5.65c0-.26-.21-.47-.47-.47h-5.18v-1.88h6.12c.78,0,1.41.63,1.41,1.41h0v7.53ZM28.24,12.24h-7.06c-.78,0-1.41-.63-1.41-1.41v-6.12h1.88v5.18c0,.26.21.47.47.47h.94v-5.65h1.88v5.65h1.41v-5.65h1.88v7.53ZM17.41,18.82h-2.82c-.26,0-.47.21-.47.47v2.82c0,.26.21.47.47.47h2.82c.26,0,.47-.21.47-.47v-2.82c0-.26-.21-.47-.47-.47ZM13.65,10.35h2.82c.26,0,.47-.21.47-.47v-2.82c0-.26-.21-.47-.47-.47h-2.82c-.26,0-.47.21-.47.47v2.82c0,.26.21.47.47.47Z"/>
    </symbol>
  </defs>
  <use width="32" height="29.18" transform="translate(19.47 269.01) scale(8.16 -8.16)" xlink:href="#icon-logo-gog"/>
</svg>