<?xml version="1.0" encoding="UTF-8"?>
<svg id="Camada_1" data-name="Camada 1" xmlns="http://www.w3.org/2000/svg" viewBox="0 0 300 300">
  <defs>
    <style>
      .cls-1 {
        fill: #fff;
      }
    </style>
  </defs>
  <g id="icon-logo-gog">
    <path class="cls-1" d="M280.53,245.98V54.02c0-12.72-10.31-23.04-23.04-23.04H42.5c-12.72,0-23.04,10.31-23.04,23.04v191.96c0,12.72,10.31,23.04,23.04,23.04h214.99c12.72,0,23.04-10.31,23.04-23.04ZM50.18,180.71c0-6.36,5.16-11.52,11.52-11.52h42.23v15.36h-34.55c-2.12,0-3.84,1.72-3.84,3.84v23.04c0,2.12,1.72,3.84,3.84,3.84h34.55v15.36h-42.23c-6.36,0-11.52-5.16-11.52-11.52v-38.39ZM111.61,142.32h0c0,6.36-5.16,11.52-11.52,11.52h-49.91v-15.36h42.23c2.12,0,3.84-1.72,3.84-3.84v-46.07c0-2.12-1.72-3.84-3.84-3.84h-23.04c-2.12,0-3.84,1.72-3.84,3.84v23.04c0,2.12,1.72,3.84,3.84,3.84h19.2v15.36h-26.87c-6.36,0-11.52-5.16-11.52-11.52v-38.39c0-6.36,5.16-11.52,11.52-11.52h38.39c6.36,0,11.52,5.16,11.52,11.52v61.43ZM123.13,169.2h38.39c6.36,0,11.52,5.16,11.52,11.52v38.39c0,6.36-5.16,11.52-11.52,11.52h-38.39c-6.36,0-11.52-5.16-11.52-11.52v-38.39c0-6.36,5.16-11.52,11.52-11.52ZM180.71,119.29c0,6.36-5.16,11.52-11.52,11.52h-38.39c-6.36,0-11.52-5.16-11.52-11.52v-38.39c0-6.36,5.16-11.52,11.52-11.52h38.39c6.36,0,11.52,5.16,11.52,11.52v38.39ZM249.82,142.32h0c0,6.36-5.16,11.52-11.52,11.52h-49.91v-15.36h42.23c2.12,0,3.84-1.72,3.84-3.84v-46.07c0-2.12-1.72-3.84-3.84-3.84h-23.04c-2.12,0-3.84,1.72-3.84,3.84v23.04c0,2.12,1.72,3.84,3.84,3.84h19.2v15.36h-26.87c-6.36,0-11.52-5.16-11.52-11.52v-38.39c0-6.36,5.16-11.52,11.52-11.52h38.39c6.36,0,11.52,5.16,11.52,11.52v61.43ZM249.82,230.62h-15.36v-46.07h-11.52v46.07h-15.36v-46.07h-7.68c-2.12,0-3.84,1.72-3.84,3.84v42.23h-15.36v-49.91c0-6.36,5.16-11.52,11.52-11.52h57.59v61.43ZM165.36,111.61v-23.04c0-2.12-1.72-3.84-3.84-3.84h-23.04c-2.12,0-3.84,1.72-3.84,3.84v23.04c0,2.12,1.72,3.84,3.84,3.84h23.04c2.12,0,3.84-1.72,3.84-3.84ZM126.96,188.39v23.04c0,2.12,1.72,3.84,3.84,3.84h23.04c2.12,0,3.84-1.72,3.84-3.84v-23.04c0-2.12-1.72-3.84-3.84-3.84h-23.04c-2.12,0-3.84,1.72-3.84,3.84Z"/>
  </g>
</svg>