<?xml version="1.0" encoding="UTF-8"?>
<svg id="Camada_1" data-name="Camada 1" xmlns="http://www.w3.org/2000/svg" viewBox="0 0 300 300">
  <path d="M149.77,19.08c-68.78,0-125.12,53.03-130.47,120.43l70.17,29.01c5.95-4.07,13.13-6.45,20.86-6.45.69,0,1.38.02,2.07.06l31.21-45.23c0-.22,0-.43,0-.64,0-27.23,22.15-49.38,49.38-49.38s49.37,22.15,49.37,49.38-22.15,49.38-49.37,49.38c-.38,0-.75,0-1.12-.02l-44.51,31.76c.02.58.04,1.17.04,1.75,0,20.44-16.62,37.06-37.06,37.06-17.94,0-32.94-12.8-36.34-29.76l-50.18-20.75c15.54,54.95,66.03,95.24,125.96,95.24,72.31,0,130.93-58.62,130.93-130.92,0-72.31-58.62-130.93-130.93-130.93"/>
  <path d="M101.34,217.73l-16.08-6.64c2.85,5.93,7.78,10.9,14.33,13.63,14.15,5.9,30.47-.82,36.37-14.98,2.86-6.85,2.87-14.41.04-21.28-2.83-6.87-8.16-12.23-15.02-15.09-6.8-2.83-14.09-2.73-20.5-.31l16.61,6.87c10.44,4.35,15.38,16.34,11.02,26.78-4.34,10.44-16.34,15.38-26.78,11.02"/>
  <path d="M225.87,116.26c0-18.14-14.76-32.9-32.9-32.9s-32.9,14.76-32.9,32.9,14.76,32.9,32.9,32.9c18.14,0,32.9-14.76,32.9-32.9M168.31,116.2c0-13.65,11.07-24.71,24.72-24.71s24.72,11.06,24.72,24.71-11.07,24.71-24.72,24.71-24.72-11.07-24.72-24.71"/>
</svg>