<?xml version="1.0" encoding="UTF-8"?>
<svg id="Camada_1" data-name="Camada 1" xmlns="http://www.w3.org/2000/svg" viewBox="0 0 300 300">
  <path d="M124.16,40.31v219.38h-38.02c-12.1,0-23.48-4.71-32.04-13.27-8.56-8.56-13.27-19.94-13.27-32.04V84.76c0-11.87,4.62-23.04,13.02-31.43,8.4-8.4,19.56-13.02,31.43-13.02h38.88M145.27,19.2h-59.98c-36.21,0-65.56,29.35-65.56,65.56v129.62c0,36.68,29.74,66.42,66.42,66.42h59.13V19.2h0Z"/>
  <path d="M214.72,19.2h-43.01v261.59h42.15c36.68,0,66.42-29.74,66.42-66.42V84.76c0-36.21-29.35-65.56-65.56-65.56ZM223.24,189.08c-14.54,0-26.32-11.78-26.32-26.32s11.78-26.32,26.32-26.32,26.32,11.78,26.32,26.32-11.78,26.32-26.32,26.32Z"/>
  <circle cx="84.5" cy="97.39" r="24.65"/>
</svg>