<?xml version="1.0" encoding="UTF-8"?>
<svg id="Camada_1" data-name="Camada 1" xmlns="http://www.w3.org/2000/svg" viewBox="0 0 300 300">
  <path id="path3049" d="M142.17,20.02c-80.7,0-115.54,71.83-115.54,71.83l10.25,7.34s-12.9,24.54-12.55,56.01c0,64.25,51.15,124.78,126.44,124.78,68.4,0,124.9-55.67,124.9-124.62,0-89.92-69.73-135.35-133.51-135.35h0ZM142.87,41.94c63.05,0,111.98,50.81,111.98,109.88,0,62.62-47.1,106.17-101.98,106.17-40.39,0-76.83-30.76-76.83-72.93,0-24.36,12.95-41.34,27.45-50.39l2.12,2.3c-3.97,3.11-15.29,21.29-15.29,39.16,0,33.18,26.02,56.16,58.8,56.16,41.76,0,69.61-35.62,69.61-76.97,0-48.12-42.47-88.97-93.59-88.97-28.27,0-52.27,12.16-66.05,22.89l-2.15-1.94c18.04-27.81,49.28-45.36,85.91-45.36h0ZM124.05,87.97c32.62,0,64.46,21.58,72.41,52.21l-2.89,1.1c-14.27-18.85-37.66-34.47-65.27-34.47-50.82,0-77.5,46.18-73.59,84.74l-2.99,1.1s-5.61-12.38-5.61-27.07c0-42.53,34.92-77.61,77.94-77.61h0ZM145.61,141.34c15.44,0,27.79,12.52,27.79,27.37,0,12.3-7.89,19.58-7.89,19.58l9.35,6.54s-9.27,14.56-28.2,14.56-34.12-14.61-34.12-34.26,17.42-33.79,33.07-33.79h0Z"/>
</svg>
